# xmcd
#
# Track frame offsets: 
#        150
#        19697
#        35232
#        51410
#        67985
#        81595
#        96467
#        118430
#        136360
#        152735
#        170037
#
# Disc length: 2573 seconds
#
# Revision: 3
# Processed by: cddbd v1.5.2PL0 Copyright (c) Steve Scherf et al.
# Submitted via: ExactAudioCopyFreeDBPlugin 1.0
#
DISCID=a60a0b0b
DTITLE=黃韻玲 洪筠惠 - 鋼琴四手聯彈3
DYEAR=1997
DGENRE=Other
TTITLE0=日光機場
TTITLE1=流浪到淡水
TTITLE2=LEMON TREE
TTITLE3=撩動
TTITLE4=姐妹
TTITLE5=雪人
TTITLE6=九月請來海邊
TTITLE7=遺憾
TTITLE8=短髮
TTITLE9=原來你什麼都不要
TTITLE10=聽海
EXTD=
EXTT0=
EXTT1=
EXTT2=
EXTT3=
EXTT4=
EXTT5=
EXTT6=
EXTT7=
EXTT8=
EXTT9=
EXTT10=
PLAYORDER=
